<mxfile host="app.diagrams.net" modified="2023-11-07T10:26:58.118Z" agent="Mozilla/5.0 (Windows NT 10.0; Win64; x64) AppleWebKit/537.36 (KHTML, like Gecko) Chrome/118.0.0.0 Safari/537.36" etag="zwdzilSh5Qq5zLDujsZr" version="22.0.8" type="github">
  <diagram id="C5RBs43oDa-KdzZeNtuy" name="Page-1">
    <mxGraphModel dx="1744" dy="1548" grid="1" gridSize="10" guides="1" tooltips="1" connect="1" arrows="1" fold="1" page="1" pageScale="1" pageWidth="827" pageHeight="1169" math="0" shadow="0">
      <root>
        <mxCell id="WIyWlLk6GJQsqaUBKTNV-0" />
        <mxCell id="WIyWlLk6GJQsqaUBKTNV-1" parent="WIyWlLk6GJQsqaUBKTNV-0" />
        <mxCell id="KO2VrwFwqGaNlMHXGD8G-8" style="edgeStyle=orthogonalEdgeStyle;rounded=0;orthogonalLoop=1;jettySize=auto;html=1;" parent="WIyWlLk6GJQsqaUBKTNV-1" source="KO2VrwFwqGaNlMHXGD8G-0" target="KO2VrwFwqGaNlMHXGD8G-46" edge="1">
          <mxGeometry relative="1" as="geometry">
            <mxPoint x="290" y="60" as="targetPoint" />
          </mxGeometry>
        </mxCell>
        <mxCell id="KO2VrwFwqGaNlMHXGD8G-53" style="edgeStyle=orthogonalEdgeStyle;rounded=0;orthogonalLoop=1;jettySize=auto;html=1;" parent="WIyWlLk6GJQsqaUBKTNV-1" source="KO2VrwFwqGaNlMHXGD8G-0" target="KO2VrwFwqGaNlMHXGD8G-44" edge="1">
          <mxGeometry relative="1" as="geometry" />
        </mxCell>
        <mxCell id="KO2VrwFwqGaNlMHXGD8G-0" value="InputView" style="rounded=0;whiteSpace=wrap;html=1;" parent="WIyWlLk6GJQsqaUBKTNV-1" vertex="1">
          <mxGeometry x="340" y="30" width="120" height="60" as="geometry" />
        </mxCell>
        <mxCell id="KO2VrwFwqGaNlMHXGD8G-54" style="edgeStyle=orthogonalEdgeStyle;rounded=0;orthogonalLoop=1;jettySize=auto;html=1;" parent="WIyWlLk6GJQsqaUBKTNV-1" source="KO2VrwFwqGaNlMHXGD8G-1" target="KO2VrwFwqGaNlMHXGD8G-44" edge="1">
          <mxGeometry relative="1" as="geometry" />
        </mxCell>
        <mxCell id="S85b0i-1O2o0kIJ1ZnP2-12" style="edgeStyle=orthogonalEdgeStyle;rounded=0;orthogonalLoop=1;jettySize=auto;html=1;" edge="1" parent="WIyWlLk6GJQsqaUBKTNV-1" source="KO2VrwFwqGaNlMHXGD8G-1" target="KO2VrwFwqGaNlMHXGD8G-44">
          <mxGeometry relative="1" as="geometry" />
        </mxCell>
        <mxCell id="S85b0i-1O2o0kIJ1ZnP2-13" style="edgeStyle=orthogonalEdgeStyle;rounded=0;orthogonalLoop=1;jettySize=auto;html=1;" edge="1" parent="WIyWlLk6GJQsqaUBKTNV-1" source="KO2VrwFwqGaNlMHXGD8G-1" target="KO2VrwFwqGaNlMHXGD8G-46">
          <mxGeometry relative="1" as="geometry" />
        </mxCell>
        <mxCell id="KO2VrwFwqGaNlMHXGD8G-1" value="OutputView" style="rounded=0;whiteSpace=wrap;html=1;" parent="WIyWlLk6GJQsqaUBKTNV-1" vertex="1">
          <mxGeometry x="340" y="90" width="120" height="60" as="geometry" />
        </mxCell>
        <mxCell id="KO2VrwFwqGaNlMHXGD8G-47" style="edgeStyle=orthogonalEdgeStyle;rounded=0;orthogonalLoop=1;jettySize=auto;html=1;" parent="WIyWlLk6GJQsqaUBKTNV-1" source="KO2VrwFwqGaNlMHXGD8G-2" target="KO2VrwFwqGaNlMHXGD8G-46" edge="1">
          <mxGeometry relative="1" as="geometry" />
        </mxCell>
        <mxCell id="KO2VrwFwqGaNlMHXGD8G-49" style="edgeStyle=orthogonalEdgeStyle;rounded=0;orthogonalLoop=1;jettySize=auto;html=1;" parent="WIyWlLk6GJQsqaUBKTNV-1" source="KO2VrwFwqGaNlMHXGD8G-2" target="KO2VrwFwqGaNlMHXGD8G-44" edge="1">
          <mxGeometry relative="1" as="geometry" />
        </mxCell>
        <mxCell id="KO2VrwFwqGaNlMHXGD8G-2" value="LotteryController" style="rounded=0;whiteSpace=wrap;html=1;" parent="WIyWlLk6GJQsqaUBKTNV-1" vertex="1">
          <mxGeometry x="354" y="-90" width="120" height="60" as="geometry" />
        </mxCell>
        <mxCell id="KO2VrwFwqGaNlMHXGD8G-24" style="edgeStyle=orthogonalEdgeStyle;rounded=0;orthogonalLoop=1;jettySize=auto;html=1;" parent="WIyWlLk6GJQsqaUBKTNV-1" source="KO2VrwFwqGaNlMHXGD8G-11" target="KO2VrwFwqGaNlMHXGD8G-16" edge="1">
          <mxGeometry relative="1" as="geometry" />
        </mxCell>
        <mxCell id="KO2VrwFwqGaNlMHXGD8G-11" value="Lottery&lt;br&gt;AnswerCheck&lt;br&gt;Service" style="rounded=0;whiteSpace=wrap;html=1;" parent="WIyWlLk6GJQsqaUBKTNV-1" vertex="1">
          <mxGeometry x="820" y="370" width="140" height="60" as="geometry" />
        </mxCell>
        <mxCell id="KO2VrwFwqGaNlMHXGD8G-22" style="edgeStyle=orthogonalEdgeStyle;rounded=0;orthogonalLoop=1;jettySize=auto;html=1;entryX=1;entryY=0.5;entryDx=0;entryDy=0;" parent="WIyWlLk6GJQsqaUBKTNV-1" source="KO2VrwFwqGaNlMHXGD8G-12" target="KO2VrwFwqGaNlMHXGD8G-15" edge="1">
          <mxGeometry relative="1" as="geometry" />
        </mxCell>
        <mxCell id="KO2VrwFwqGaNlMHXGD8G-27" style="edgeStyle=orthogonalEdgeStyle;rounded=0;orthogonalLoop=1;jettySize=auto;html=1;entryX=1;entryY=0.5;entryDx=0;entryDy=0;" parent="WIyWlLk6GJQsqaUBKTNV-1" source="KO2VrwFwqGaNlMHXGD8G-12" target="KO2VrwFwqGaNlMHXGD8G-26" edge="1">
          <mxGeometry relative="1" as="geometry" />
        </mxCell>
        <mxCell id="S85b0i-1O2o0kIJ1ZnP2-48" style="edgeStyle=orthogonalEdgeStyle;rounded=0;orthogonalLoop=1;jettySize=auto;html=1;entryX=1;entryY=0.5;entryDx=0;entryDy=0;" edge="1" parent="WIyWlLk6GJQsqaUBKTNV-1" source="KO2VrwFwqGaNlMHXGD8G-12" target="S85b0i-1O2o0kIJ1ZnP2-47">
          <mxGeometry relative="1" as="geometry" />
        </mxCell>
        <mxCell id="KO2VrwFwqGaNlMHXGD8G-12" value="Lottery&lt;br&gt;AnswerNumber&lt;br&gt;Service" style="rounded=0;whiteSpace=wrap;html=1;" parent="WIyWlLk6GJQsqaUBKTNV-1" vertex="1">
          <mxGeometry x="580" y="370" width="140" height="60" as="geometry" />
        </mxCell>
        <mxCell id="KO2VrwFwqGaNlMHXGD8G-15" value="LottoAnswer&lt;br&gt;Validator" style="rounded=0;whiteSpace=wrap;html=1;" parent="WIyWlLk6GJQsqaUBKTNV-1" vertex="1">
          <mxGeometry x="474" y="540" width="140" height="60" as="geometry" />
        </mxCell>
        <mxCell id="KO2VrwFwqGaNlMHXGD8G-16" value="Winning&lt;br&gt;Money&lt;br&gt;Calculator" style="rounded=0;whiteSpace=wrap;html=1;" parent="WIyWlLk6GJQsqaUBKTNV-1" vertex="1">
          <mxGeometry x="910" y="470" width="120" height="60" as="geometry" />
        </mxCell>
        <mxCell id="KO2VrwFwqGaNlMHXGD8G-25" style="edgeStyle=orthogonalEdgeStyle;rounded=0;orthogonalLoop=1;jettySize=auto;html=1;" parent="WIyWlLk6GJQsqaUBKTNV-1" source="KO2VrwFwqGaNlMHXGD8G-17" target="KO2VrwFwqGaNlMHXGD8G-18" edge="1">
          <mxGeometry relative="1" as="geometry" />
        </mxCell>
        <mxCell id="KO2VrwFwqGaNlMHXGD8G-17" value="Winning&lt;br&gt;Policy&lt;br&gt;&amp;lt;&amp;lt;I&amp;gt;&amp;gt;" style="rounded=0;whiteSpace=wrap;html=1;" parent="WIyWlLk6GJQsqaUBKTNV-1" vertex="1">
          <mxGeometry x="750" y="470" width="120" height="60" as="geometry" />
        </mxCell>
        <mxCell id="KO2VrwFwqGaNlMHXGD8G-18" value="Winning&lt;br&gt;Policy&lt;br&gt;WooWaCourse" style="rounded=0;whiteSpace=wrap;html=1;" parent="WIyWlLk6GJQsqaUBKTNV-1" vertex="1">
          <mxGeometry x="750" y="570" width="120" height="60" as="geometry" />
        </mxCell>
        <mxCell id="KO2VrwFwqGaNlMHXGD8G-23" style="edgeStyle=orthogonalEdgeStyle;rounded=0;orthogonalLoop=1;jettySize=auto;html=1;" parent="WIyWlLk6GJQsqaUBKTNV-1" source="KO2VrwFwqGaNlMHXGD8G-11" target="KO2VrwFwqGaNlMHXGD8G-17" edge="1">
          <mxGeometry relative="1" as="geometry" />
        </mxCell>
        <mxCell id="KO2VrwFwqGaNlMHXGD8G-26" value="LottoAnswer" style="rounded=0;whiteSpace=wrap;html=1;" parent="WIyWlLk6GJQsqaUBKTNV-1" vertex="1">
          <mxGeometry x="390" y="370" width="140" height="60" as="geometry" />
        </mxCell>
        <mxCell id="S85b0i-1O2o0kIJ1ZnP2-34" style="edgeStyle=orthogonalEdgeStyle;rounded=0;orthogonalLoop=1;jettySize=auto;html=1;" edge="1" parent="WIyWlLk6GJQsqaUBKTNV-1" source="KO2VrwFwqGaNlMHXGD8G-33" target="KO2VrwFwqGaNlMHXGD8G-64">
          <mxGeometry relative="1" as="geometry" />
        </mxCell>
        <mxCell id="KO2VrwFwqGaNlMHXGD8G-33" value="Lottery&lt;br style=&quot;border-color: var(--border-color);&quot;&gt;Count&lt;br style=&quot;border-color: var(--border-color);&quot;&gt;Service" style="rounded=0;whiteSpace=wrap;html=1;" parent="WIyWlLk6GJQsqaUBKTNV-1" vertex="1">
          <mxGeometry x="-200" y="-170" width="120" height="60" as="geometry" />
        </mxCell>
        <mxCell id="S85b0i-1O2o0kIJ1ZnP2-24" style="edgeStyle=orthogonalEdgeStyle;rounded=0;orthogonalLoop=1;jettySize=auto;html=1;" edge="1" parent="WIyWlLk6GJQsqaUBKTNV-1" source="KO2VrwFwqGaNlMHXGD8G-34" target="KO2VrwFwqGaNlMHXGD8G-37">
          <mxGeometry relative="1" as="geometry">
            <mxPoint x="154" y="-175" as="sourcePoint" />
            <Array as="points">
              <mxPoint x="154" y="-135" />
              <mxPoint x="154" y="-220" />
            </Array>
          </mxGeometry>
        </mxCell>
        <mxCell id="S85b0i-1O2o0kIJ1ZnP2-26" style="edgeStyle=orthogonalEdgeStyle;rounded=0;orthogonalLoop=1;jettySize=auto;html=1;entryX=0;entryY=0.5;entryDx=0;entryDy=0;" edge="1" parent="WIyWlLk6GJQsqaUBKTNV-1" source="KO2VrwFwqGaNlMHXGD8G-34" target="KO2VrwFwqGaNlMHXGD8G-35">
          <mxGeometry relative="1" as="geometry" />
        </mxCell>
        <mxCell id="KO2VrwFwqGaNlMHXGD8G-34" value="Lottery&lt;br&gt;Issue&lt;br&gt;Service" style="rounded=0;whiteSpace=wrap;html=1;" parent="WIyWlLk6GJQsqaUBKTNV-1" vertex="1">
          <mxGeometry x="-20" y="-165" width="120" height="60" as="geometry" />
        </mxCell>
        <mxCell id="S85b0i-1O2o0kIJ1ZnP2-27" style="edgeStyle=orthogonalEdgeStyle;rounded=0;orthogonalLoop=1;jettySize=auto;html=1;" edge="1" parent="WIyWlLk6GJQsqaUBKTNV-1" source="KO2VrwFwqGaNlMHXGD8G-35" target="S85b0i-1O2o0kIJ1ZnP2-25">
          <mxGeometry relative="1" as="geometry" />
        </mxCell>
        <mxCell id="S85b0i-1O2o0kIJ1ZnP2-30" style="edgeStyle=orthogonalEdgeStyle;rounded=0;orthogonalLoop=1;jettySize=auto;html=1;" edge="1" parent="WIyWlLk6GJQsqaUBKTNV-1" source="KO2VrwFwqGaNlMHXGD8G-35" target="S85b0i-1O2o0kIJ1ZnP2-28">
          <mxGeometry relative="1" as="geometry" />
        </mxCell>
        <mxCell id="KO2VrwFwqGaNlMHXGD8G-35" value="Lotto" style="rounded=0;whiteSpace=wrap;html=1;" parent="WIyWlLk6GJQsqaUBKTNV-1" vertex="1">
          <mxGeometry x="64" y="-340" width="120" height="60" as="geometry" />
        </mxCell>
        <mxCell id="S85b0i-1O2o0kIJ1ZnP2-41" style="edgeStyle=orthogonalEdgeStyle;rounded=0;orthogonalLoop=1;jettySize=auto;html=1;" edge="1" parent="WIyWlLk6GJQsqaUBKTNV-1" source="KO2VrwFwqGaNlMHXGD8G-37" target="KO2VrwFwqGaNlMHXGD8G-35">
          <mxGeometry relative="1" as="geometry" />
        </mxCell>
        <mxCell id="KO2VrwFwqGaNlMHXGD8G-37" value="LottoIssuer" style="rounded=0;whiteSpace=wrap;html=1;" parent="WIyWlLk6GJQsqaUBKTNV-1" vertex="1">
          <mxGeometry x="190" y="-260" width="120" height="60" as="geometry" />
        </mxCell>
        <mxCell id="KO2VrwFwqGaNlMHXGD8G-65" style="edgeStyle=orthogonalEdgeStyle;rounded=0;orthogonalLoop=1;jettySize=auto;html=1;" parent="WIyWlLk6GJQsqaUBKTNV-1" source="KO2VrwFwqGaNlMHXGD8G-33" target="KO2VrwFwqGaNlMHXGD8G-42" edge="1">
          <mxGeometry relative="1" as="geometry">
            <mxPoint x="-240" y="-230" as="sourcePoint" />
          </mxGeometry>
        </mxCell>
        <mxCell id="KO2VrwFwqGaNlMHXGD8G-42" value="Lotto&lt;br&gt;Count&lt;br&gt;Calculator" style="rounded=0;whiteSpace=wrap;html=1;" parent="WIyWlLk6GJQsqaUBKTNV-1" vertex="1">
          <mxGeometry x="-200" y="-280" width="120" height="60" as="geometry" />
        </mxCell>
        <mxCell id="KO2VrwFwqGaNlMHXGD8G-45" style="edgeStyle=orthogonalEdgeStyle;rounded=0;orthogonalLoop=1;jettySize=auto;html=1;entryX=0.5;entryY=0;entryDx=0;entryDy=0;" parent="WIyWlLk6GJQsqaUBKTNV-1" source="KO2VrwFwqGaNlMHXGD8G-44" target="KO2VrwFwqGaNlMHXGD8G-12" edge="1">
          <mxGeometry relative="1" as="geometry" />
        </mxCell>
        <mxCell id="S85b0i-1O2o0kIJ1ZnP2-0" style="edgeStyle=orthogonalEdgeStyle;rounded=0;orthogonalLoop=1;jettySize=auto;html=1;" edge="1" parent="WIyWlLk6GJQsqaUBKTNV-1" source="KO2VrwFwqGaNlMHXGD8G-46" target="KO2VrwFwqGaNlMHXGD8G-34">
          <mxGeometry relative="1" as="geometry">
            <Array as="points">
              <mxPoint x="200" y="-10" />
              <mxPoint x="200" y="-10" />
            </Array>
          </mxGeometry>
        </mxCell>
        <mxCell id="KO2VrwFwqGaNlMHXGD8G-46" value="LotteryPurchase&lt;br&gt;Controller" style="rounded=0;whiteSpace=wrap;html=1;" parent="WIyWlLk6GJQsqaUBKTNV-1" vertex="1">
          <mxGeometry x="160" y="30" width="130" height="60" as="geometry" />
        </mxCell>
        <mxCell id="KO2VrwFwqGaNlMHXGD8G-58" value="" style="edgeStyle=orthogonalEdgeStyle;rounded=0;orthogonalLoop=1;jettySize=auto;html=1;" parent="WIyWlLk6GJQsqaUBKTNV-1" source="KO2VrwFwqGaNlMHXGD8G-2" target="KO2VrwFwqGaNlMHXGD8G-44" edge="1">
          <mxGeometry relative="1" as="geometry">
            <mxPoint x="460" y="60" as="sourcePoint" />
            <mxPoint x="757" y="150" as="targetPoint" />
          </mxGeometry>
        </mxCell>
        <mxCell id="S85b0i-1O2o0kIJ1ZnP2-3" style="edgeStyle=orthogonalEdgeStyle;rounded=0;orthogonalLoop=1;jettySize=auto;html=1;" edge="1" parent="WIyWlLk6GJQsqaUBKTNV-1" source="KO2VrwFwqGaNlMHXGD8G-44" target="KO2VrwFwqGaNlMHXGD8G-11">
          <mxGeometry relative="1" as="geometry">
            <Array as="points">
              <mxPoint x="640" y="200" />
              <mxPoint x="890" y="200" />
            </Array>
          </mxGeometry>
        </mxCell>
        <mxCell id="S85b0i-1O2o0kIJ1ZnP2-17" style="edgeStyle=orthogonalEdgeStyle;rounded=0;orthogonalLoop=1;jettySize=auto;html=1;" edge="1" parent="WIyWlLk6GJQsqaUBKTNV-1" source="KO2VrwFwqGaNlMHXGD8G-44" target="S85b0i-1O2o0kIJ1ZnP2-11">
          <mxGeometry relative="1" as="geometry" />
        </mxCell>
        <mxCell id="KO2VrwFwqGaNlMHXGD8G-44" value="LotteryAnswer&lt;br&gt;Controller" style="rounded=0;whiteSpace=wrap;html=1;" parent="WIyWlLk6GJQsqaUBKTNV-1" vertex="1">
          <mxGeometry x="520" y="30" width="140" height="60" as="geometry" />
        </mxCell>
        <mxCell id="KO2VrwFwqGaNlMHXGD8G-63" style="edgeStyle=orthogonalEdgeStyle;rounded=0;orthogonalLoop=1;jettySize=auto;html=1;entryX=0.7;entryY=0.983;entryDx=0;entryDy=0;entryPerimeter=0;" parent="WIyWlLk6GJQsqaUBKTNV-1" source="KO2VrwFwqGaNlMHXGD8G-46" target="KO2VrwFwqGaNlMHXGD8G-33" edge="1">
          <mxGeometry relative="1" as="geometry">
            <Array as="points">
              <mxPoint x="-116" y="60" />
            </Array>
          </mxGeometry>
        </mxCell>
        <mxCell id="KO2VrwFwqGaNlMHXGD8G-64" value="CashValidator" style="rounded=0;whiteSpace=wrap;html=1;" parent="WIyWlLk6GJQsqaUBKTNV-1" vertex="1">
          <mxGeometry x="-360" y="-170" width="120" height="60" as="geometry" />
        </mxCell>
        <mxCell id="S85b0i-1O2o0kIJ1ZnP2-4" style="edgeStyle=orthogonalEdgeStyle;rounded=0;orthogonalLoop=1;jettySize=auto;html=1;" edge="1" parent="WIyWlLk6GJQsqaUBKTNV-1" source="KO2VrwFwqGaNlMHXGD8G-69" target="KO2VrwFwqGaNlMHXGD8G-70">
          <mxGeometry relative="1" as="geometry" />
        </mxCell>
        <mxCell id="S85b0i-1O2o0kIJ1ZnP2-6" style="edgeStyle=orthogonalEdgeStyle;rounded=0;orthogonalLoop=1;jettySize=auto;html=1;" edge="1" parent="WIyWlLk6GJQsqaUBKTNV-1" source="KO2VrwFwqGaNlMHXGD8G-69" target="S85b0i-1O2o0kIJ1ZnP2-5">
          <mxGeometry relative="1" as="geometry" />
        </mxCell>
        <mxCell id="KO2VrwFwqGaNlMHXGD8G-69" value="로또 구매" style="rounded=0;whiteSpace=wrap;html=1;" parent="WIyWlLk6GJQsqaUBKTNV-1" vertex="1">
          <mxGeometry x="-610" y="925" width="120" height="60" as="geometry" />
        </mxCell>
        <mxCell id="KO2VrwFwqGaNlMHXGD8G-70" value="로또 발행" style="rounded=0;whiteSpace=wrap;html=1;" parent="WIyWlLk6GJQsqaUBKTNV-1" vertex="1">
          <mxGeometry x="-510" y="820" width="120" height="60" as="geometry" />
        </mxCell>
        <mxCell id="S85b0i-1O2o0kIJ1ZnP2-8" style="edgeStyle=orthogonalEdgeStyle;rounded=0;orthogonalLoop=1;jettySize=auto;html=1;" edge="1" parent="WIyWlLk6GJQsqaUBKTNV-1" source="KO2VrwFwqGaNlMHXGD8G-72" target="S85b0i-1O2o0kIJ1ZnP2-7">
          <mxGeometry relative="1" as="geometry" />
        </mxCell>
        <mxCell id="S85b0i-1O2o0kIJ1ZnP2-19" style="edgeStyle=orthogonalEdgeStyle;rounded=0;orthogonalLoop=1;jettySize=auto;html=1;" edge="1" parent="WIyWlLk6GJQsqaUBKTNV-1" source="KO2VrwFwqGaNlMHXGD8G-72" target="S85b0i-1O2o0kIJ1ZnP2-9">
          <mxGeometry relative="1" as="geometry" />
        </mxCell>
        <mxCell id="S85b0i-1O2o0kIJ1ZnP2-21" style="edgeStyle=orthogonalEdgeStyle;rounded=0;orthogonalLoop=1;jettySize=auto;html=1;" edge="1" parent="WIyWlLk6GJQsqaUBKTNV-1" source="KO2VrwFwqGaNlMHXGD8G-72" target="S85b0i-1O2o0kIJ1ZnP2-18">
          <mxGeometry relative="1" as="geometry" />
        </mxCell>
        <mxCell id="S85b0i-1O2o0kIJ1ZnP2-22" style="edgeStyle=orthogonalEdgeStyle;rounded=0;orthogonalLoop=1;jettySize=auto;html=1;" edge="1" parent="WIyWlLk6GJQsqaUBKTNV-1" source="KO2VrwFwqGaNlMHXGD8G-72" target="S85b0i-1O2o0kIJ1ZnP2-7">
          <mxGeometry relative="1" as="geometry" />
        </mxCell>
        <mxCell id="KO2VrwFwqGaNlMHXGD8G-72" value="로또 당첨 결과" style="rounded=0;whiteSpace=wrap;html=1;" parent="WIyWlLk6GJQsqaUBKTNV-1" vertex="1">
          <mxGeometry x="-160" y="925" width="120" height="60" as="geometry" />
        </mxCell>
        <mxCell id="KO2VrwFwqGaNlMHXGD8G-77" style="edgeStyle=orthogonalEdgeStyle;rounded=0;orthogonalLoop=1;jettySize=auto;html=1;" parent="WIyWlLk6GJQsqaUBKTNV-1" source="KO2VrwFwqGaNlMHXGD8G-73" target="KO2VrwFwqGaNlMHXGD8G-72" edge="1">
          <mxGeometry relative="1" as="geometry" />
        </mxCell>
        <mxCell id="S85b0i-1O2o0kIJ1ZnP2-23" style="edgeStyle=orthogonalEdgeStyle;rounded=0;orthogonalLoop=1;jettySize=auto;html=1;" edge="1" parent="WIyWlLk6GJQsqaUBKTNV-1" source="KO2VrwFwqGaNlMHXGD8G-73" target="KO2VrwFwqGaNlMHXGD8G-69">
          <mxGeometry relative="1" as="geometry" />
        </mxCell>
        <mxCell id="KO2VrwFwqGaNlMHXGD8G-73" value="로또 게임" style="rounded=0;whiteSpace=wrap;html=1;" parent="WIyWlLk6GJQsqaUBKTNV-1" vertex="1">
          <mxGeometry x="-390" y="1005" width="120" height="60" as="geometry" />
        </mxCell>
        <mxCell id="S85b0i-1O2o0kIJ1ZnP2-5" value="티켓 개수 계산" style="rounded=0;whiteSpace=wrap;html=1;" vertex="1" parent="WIyWlLk6GJQsqaUBKTNV-1">
          <mxGeometry x="-720" y="820" width="120" height="60" as="geometry" />
        </mxCell>
        <mxCell id="S85b0i-1O2o0kIJ1ZnP2-7" value="로또 당첨번호 저장" style="rounded=0;whiteSpace=wrap;html=1;" vertex="1" parent="WIyWlLk6GJQsqaUBKTNV-1">
          <mxGeometry x="-330" y="820" width="120" height="60" as="geometry" />
        </mxCell>
        <mxCell id="S85b0i-1O2o0kIJ1ZnP2-9" value="로또 당첨 판단" style="rounded=0;whiteSpace=wrap;html=1;" vertex="1" parent="WIyWlLk6GJQsqaUBKTNV-1">
          <mxGeometry x="-160" y="820" width="120" height="60" as="geometry" />
        </mxCell>
        <mxCell id="S85b0i-1O2o0kIJ1ZnP2-10" value="Rate&lt;br&gt;Calculator" style="rounded=0;whiteSpace=wrap;html=1;" vertex="1" parent="WIyWlLk6GJQsqaUBKTNV-1">
          <mxGeometry x="1070" y="470" width="120" height="60" as="geometry" />
        </mxCell>
        <mxCell id="S85b0i-1O2o0kIJ1ZnP2-15" style="edgeStyle=orthogonalEdgeStyle;rounded=0;orthogonalLoop=1;jettySize=auto;html=1;" edge="1" parent="WIyWlLk6GJQsqaUBKTNV-1" source="S85b0i-1O2o0kIJ1ZnP2-11" target="S85b0i-1O2o0kIJ1ZnP2-10">
          <mxGeometry relative="1" as="geometry" />
        </mxCell>
        <mxCell id="S85b0i-1O2o0kIJ1ZnP2-16" style="edgeStyle=orthogonalEdgeStyle;rounded=0;orthogonalLoop=1;jettySize=auto;html=1;" edge="1" parent="WIyWlLk6GJQsqaUBKTNV-1" source="S85b0i-1O2o0kIJ1ZnP2-11" target="S85b0i-1O2o0kIJ1ZnP2-14">
          <mxGeometry relative="1" as="geometry" />
        </mxCell>
        <mxCell id="S85b0i-1O2o0kIJ1ZnP2-11" value="Lottery&lt;br&gt;Rate&lt;br&gt;Service" style="rounded=0;whiteSpace=wrap;html=1;" vertex="1" parent="WIyWlLk6GJQsqaUBKTNV-1">
          <mxGeometry x="1060" y="370" width="140" height="60" as="geometry" />
        </mxCell>
        <mxCell id="S85b0i-1O2o0kIJ1ZnP2-14" value="Rate&lt;br&gt;Policy" style="rounded=0;whiteSpace=wrap;html=1;" vertex="1" parent="WIyWlLk6GJQsqaUBKTNV-1">
          <mxGeometry x="1220" y="470" width="120" height="60" as="geometry" />
        </mxCell>
        <mxCell id="S85b0i-1O2o0kIJ1ZnP2-18" value="로또 당첨 통계 계산" style="rounded=0;whiteSpace=wrap;html=1;" vertex="1" parent="WIyWlLk6GJQsqaUBKTNV-1">
          <mxGeometry x="50" y="820" width="120" height="60" as="geometry" />
        </mxCell>
        <mxCell id="S85b0i-1O2o0kIJ1ZnP2-25" value="LottoSizePolicy" style="rounded=0;whiteSpace=wrap;html=1;" vertex="1" parent="WIyWlLk6GJQsqaUBKTNV-1">
          <mxGeometry x="-20" y="-450" width="120" height="60" as="geometry" />
        </mxCell>
        <mxCell id="S85b0i-1O2o0kIJ1ZnP2-28" value="LottoNumberPolicy" style="rounded=0;whiteSpace=wrap;html=1;" vertex="1" parent="WIyWlLk6GJQsqaUBKTNV-1">
          <mxGeometry x="130" y="-450" width="120" height="60" as="geometry" />
        </mxCell>
        <mxCell id="S85b0i-1O2o0kIJ1ZnP2-40" style="edgeStyle=orthogonalEdgeStyle;rounded=0;orthogonalLoop=1;jettySize=auto;html=1;entryX=0.75;entryY=0;entryDx=0;entryDy=0;" edge="1" parent="WIyWlLk6GJQsqaUBKTNV-1" source="S85b0i-1O2o0kIJ1ZnP2-38" target="KO2VrwFwqGaNlMHXGD8G-2">
          <mxGeometry relative="1" as="geometry">
            <Array as="points">
              <mxPoint x="580" y="-120" />
              <mxPoint x="444" y="-120" />
            </Array>
          </mxGeometry>
        </mxCell>
        <mxCell id="S85b0i-1O2o0kIJ1ZnP2-38" value="Lottos" style="rounded=0;whiteSpace=wrap;html=1;" vertex="1" parent="WIyWlLk6GJQsqaUBKTNV-1">
          <mxGeometry x="520" y="-200" width="120" height="60" as="geometry" />
        </mxCell>
        <mxCell id="S85b0i-1O2o0kIJ1ZnP2-47" value="LottoAnswer&lt;br&gt;Mapper" style="rounded=0;whiteSpace=wrap;html=1;" vertex="1" parent="WIyWlLk6GJQsqaUBKTNV-1">
          <mxGeometry x="474" y="460" width="140" height="60" as="geometry" />
        </mxCell>
      </root>
    </mxGraphModel>
  </diagram>
</mxfile>
